<?xml version="1.0" encoding="utf-8"?>
<!-- Generator: Adobe Illustrator 16.2.1, SVG Export Plug-In . SVG Version: 6.00 Build 0)  -->
<!DOCTYPE svg PUBLIC "-//W3C//DTD SVG 1.1//EN" "http://www.w3.org/Graphics/SVG/1.1/DTD/svg11.dtd">
<svg version="1.1" id="sirius_x5F_logo" xmlns="http://www.w3.org/2000/svg" xmlns:xlink="http://www.w3.org/1999/xlink" x="0px"
	 y="0px" width="250px" height="91px" viewBox="0 0 250 91" enable-background="new 0 0 250 91" xml:space="preserve">
<g>
	<g>
		<path fill="#221F52" d="M178.893,11.315c3.221-0.182,8.229-1.435,9.301-2.686c1.074-1.249,3.4-2.862,4.479-3.397
			c1.071-0.537,2.856-1.435,3.935-2.147c1.072-0.715,4.295-2.861,5.904-3.042c1.607-0.178,5.366,0.181,7.153,1.788
			c1.79,1.613,6.267,2.999,7.337,3.826c1.072,0.828,2.686,1.545,4.475,2.26c1.789,0.712,3.039,1.251,4.828,1.07
			c1.789-0.178,3.043,1.613,3.577,2.328c0.537,0.713,0.722,1.43,2.15,0.892c1.43-0.534,3.04,0.718,2.86,1.969
			s-0.357,3.398-1.074,4.473c-0.715,1.074,0.744,2.685,1.09,3.22c0.345,0.537,1.465,0.615,1.798,1.198
			c0.332,0.585,2.081,2.001,2,2.834c-0.084,0.834,0.081,1.334,0.75,2c0.666,0.666,1.416,1.166,2.166,1.752
			c0.752,0.582,2.001,1.165,2.337,1.83c0.331,0.669,1.002,1.669,1.164,2.42c0.169,0.748,1.255,2.248,1.502,3.086
			c0.249,0.833,0.749,2.333,0.998,2.832c0.251,0.5,0.338,2.085,0.916,2.752c0.588,0.667,0.751,0.999,0.919,2.081
			c0.167,1.083,0.583,3.168,0.418,3.754c-0.165,0.585-0.749,2.5-1.001,2.998c-0.247,0.504-0.834,2.586-1.083,3.086
			c-0.25,0.502-1.249,1.584-1.249,2.086c0,0.5,0.165,0.994-0.502,1.58c-0.665,0.584-0.665,1.669-0.828,2.338
			c-0.17,0.663-0.252,2.163-0.756,2.498c-0.498,0.332-0.997,0.497-2.002,0.835c-1.002,0.332-1.498,0.83-2.082,1.334
			c-0.584,0.498-0.749,1.083-1.336,1.665c-0.581,0.582-0.914,1.084-1.083,1.584c-0.167,0.497-0.581,0.918-1.002,1.503
			c-0.415,0.584-1.081,1.834-1.161,2.583c-0.083,0.75-0.586,1.249-0.754,1.665c-0.163,0.416,0.25,1.249-0.163,1.337
			c-0.42,0.082-0.585,0.163-1.421,0.414c-0.832,0.247-1.417-0.414-2.167,0.751c-0.748,1.17-2.503,4.419-3.419,4.834
			c-0.915,0.416-1.834,0.584-2.5,1.164c-0.665,0.588-1.914,2.17-2.914,2.336c-1,0.17-4.337,1.336-5,2.001
			c-0.67,0.666-3.338,4-4.84,4c-1.5,0-6.168,0-7.584,0c-1.418,0-2.584-0.166-3.334-0.581c-0.75-0.416-0.5-0.332-1.584-0.332
			c-1.086,0-2.752,0.666-2.836,0.165c-0.082-0.501-1.666-1.836-2.75-1.666c-1.082,0.168-1.832,0.25-2.25-0.501
			c-0.418-0.75-2.254-2.503-3.168-2.503c-0.918,0-3.17-0.33-3.75-0.667c-0.584-0.332-1.252,0.084-2.172-0.414
			c-0.914-0.501-1.664-1.416-2.916-1.166c-1.25,0.248-1.832,0.332-2.414,0.332c-0.586,0-1.172,0.17-1.584-0.416
			c-0.418-0.588-1.584-1.752-2.834-1.918c-1.252-0.168-1.836,0.166-2-1.001c-0.168-1.164-0.67-1.751-0.834-2.583
			c-0.17-0.837-0.5-0.917-0.748-1.414c-0.254-0.505-0.504-0.419-0.336-1.172c0.168-0.749-0.252-1.666-0.916-1.831
			c-0.67-0.171-1.086,0.246-1.502-0.336c-0.416-0.578-1.666-1.749-1.5-2.416c0.168-0.665-0.086-1.834-0.67-2.25
			c-0.58-0.418-1.58,0-1.58-0.751s-0.25-1.25-0.668-1.665c-0.418-0.421-0.998-1.419-0.998-2.002s-0.502-0.335-0.752-1.085
			s-0.752-1.502-0.666-2.251c0.084-0.749,0.062-1.164-0.015-1.999c-0.071-0.832-0.901-0.749-0.901-1.999
			c0-1.252-0.922-1.751-1.002-2.42c-0.084-0.664-0.418-2.248-0.418-2.752c0-0.498-0.748-2.247-1.166-2.58
			c-0.418-0.335-0.582-1.871-0.582-2.854c0-0.981-0.418-2.15,0-2.901c0.418-0.747,0.496-0.747,1.166-1.082
			c0.666-0.333,1.418-0.417,1.418-0.917c0-0.501-0.418-1.001-0.418-1.416c0-0.419,0-1.669,0.752-2.087
			c0.75-0.416,0.75-1.249,1.832-1.334c1.082-0.084,1.332-0.666,1.75-1.165c0.418-0.5,0.586-1.087,0.586-1.585s0.164-1.251,0.666-1.5
			c0.498-0.249,1.084-1.334,0.996-1.833c-0.08-0.499,0-1.583,0.088-2.251c0.082-0.667-0.252-1.417,0.082-2
			c0.334-0.582,0.75-2.5,1.166-2.748c0.418-0.254,0.918-1.169,1.25-1.668c0.334-0.5-0.166-0.917,0.584-1.5
			c0.75-0.586,1.754-1.586,2.332-1.754c0.588-0.165,1.586-0.414,2.25-1.332c0.67-0.918,1.088-1.75,1.252-2.501
			c0.168-0.749-0.164-1.415,0.5-1.836c0.668-0.415,1.5-0.662,1.836-0.745C176.604,11.733,178.893,11.315,178.893,11.315"/>
		<path fill="#2E2E6E" d="M175.854,20.32c1.086-0.503,1.748-0.837,2.584-1.418c0.832-0.585,1.586-1.167,2-1.251
			c0.418-0.083,0.332-0.168,0.918-0.5c0.584-0.336,1.002-0.416,1.164-0.917c0.168-0.5-0.58,0,0.168-0.5
			c0.75-0.502,1.5-0.751,2.168-1.499c0.666-0.753,1.168-1.003,1.838-1.252c0.664-0.252,2.162-0.751,2.494-0.835
			c0.34-0.083,1.338-0.583,2.17-0.583c0.834,0,2.002,0.418,2.834,0c0.834-0.417,2-1,2.5-1.083c0.502-0.081,2.92-0.585,2.92-0.585
			s0.248-0.249,0.955-1.085c0.711-0.834,1.815-1.414,2.392-1.414s2.153,0.335,2.737,0.835c0.584,0.495,0.584,0.831,1.998,1.331
			c1.423,0.5,1.672,1.5,2.674,1.667c0.998,0.168,1.578,0.334,2.582,0.586c1.001,0.248,3.252,0.833,3.501,0.913
			c0.25,0.083,2.752,0.417,3.419,1.504c0.664,1.078,0,1.665,1.666,2.166c1.666,0.498,2.75,0.498,4.001,0.498
			c1.247,0,2.25-0.165,3.336,0.668c1.084,0.832,1.416,2.417,1.832,3.5c0.42,1.082,1.584,4.583,1.665,5.417
			c0.086,0.834,0.814,1.669,1.449,3.001c0.637,1.333,2.636,5.086,2.889,5.586c0.246,0.499,2.081,1.918,2.331,3.083
			c0.252,1.167,1.167,2.002,1.254,3.085c0.082,1.085,0.915,4.021,0,4.262c-0.919,0.236-2.504,1.655-2.752,2.489
			c-0.25,0.836-0.749,2.834-0.833,3.501c-0.084,0.665,0.165,4.754-0.169,5.751c-0.334,1.001-1.5,2.419-2.166,3.17
			c-0.665,0.747-1.75,3.749-2.165,4.414c-0.422,0.667-1.919,2.255-2.002,3.005c-0.083,0.747-0.248,1.915-0.334,2.833
			c-0.085,0.916-1.5,1.085-2.334,1.665c-0.834,0.581-1.583,1.834-3.168,1.834c-1.586,0-1.999,0.833-3.085,1.419
			c-1.082,0.579-3.167,0.499-4.251,0.753c-1.081,0.247-4.254,1.913-4.254,1.913s-0.834,1.917-1.163,3.168
			c-0.337,1.247-1,2.833-2.003,2.833c-1,0-2.162-0.496-2.918-0.666c-0.752-0.17-4.502-0.086-5-0.249
			c-0.5-0.167-4.086-0.833-5.002-1.001c-0.918-0.167-4.086-1.499-4.752-1.75s-3.582-0.751-3.748-1.17
			c-0.166-0.414-3.586-1.578-4.504-1.578c-0.916,0-1.084-0.086-2.334,0.165c-1.25,0.248-1.25-0.918-1.75-1.335
			c-0.498-0.417-3.002,0-3.752-0.504c-0.75-0.498-2-2.248-2-3.251c0-0.996-0.332-4.58-1.498-4.83c-1.17-0.249-2-1.418-2.252-2.333
			c-0.248-0.921-1.086-4.337-2.002-5.088c-0.916-0.748-2-2.831-2.082-4.166c-0.084-1.334-0.5-4.922-0.836-5.916
			c-0.332-1.003-1.75-2.668-1.914-3.67c-0.168-1,0-3.501,0-4.334c0-0.835-0.168-2.67,0.998-3.419
			c1.168-0.751,2.002-2.665,2.834-3.669c0.834-1,1.586-2.248,1.502-2.83c-0.086-0.584-0.17-2.085,0.664-3.001
			c0.836-0.921,1.504-2.001,1.834-2.669c0.336-0.666,0.502-0.583,1.668-1.501c1.166-0.915,1.586-1.501,1.586-2.669
			c0-1.159,0-2.248,0.414-2.331C175.186,20.401,175.854,20.32,175.854,20.32"/>
		<path fill="#2C398B" d="M170.355,42.325c0.83-1.169,1.412-3.17,1.748-3.502c0.332-0.332,0.752-2.003,1-2.751
			c0.25-0.75,0.75-2.667,1.166-3.585c0.418-0.915,0.168-3.415,0.834-4.418c0.668-0.995,1.004-2.666,1.58-2.833
			c0.588-0.166,1.588-0.166,1.84-1.084c0.248-0.915,0.412-2.752,1.082-3.25c0.664-0.5,0.252-1.083,1.586-1.25
			c1.33-0.168,2.584-0.252,3.332,0c0.75,0.25,2.25-1.166,3.252-1.42c0.998-0.248,1.666-0.916,2.668-1.081
			c1-0.164,2.332-0.667,3-1.498c0.668-0.836,1.75-2.003,2.83-1.588c1.086,0.417,2.086,0.994,3.92-0.086
			c1.832-1.078,5.67-1.913,7.168-1.247c1.5,0.669,2.67,2.666,4.002,2.666c1.336,0,2.25,0.67,2.836,1.338
			c0.582,0.666,1.498,1.833,2.5,1.833s2.002,1.25,2.667,1.664c0.667,0.42,4.834,5.171,5.505,5.67c0.664,0.501,2.58,1.25,2.831,2
			c0.249,0.75-0.085,2.334,0.749,3.085c0.835,0.751,1.67,0.835,2.339,2.25c0.664,1.416,1.499,3.418,1.581,4.503
			c0.083,1.082,0.833,1.916,0.917,3.249c0.083,1.335-0.416,3.165,0,4.169c0.418,0.998,1.083,2.666,1.333,3.333
			c0.253,0.668,1.25,2.501,0.498,3.165c-0.748,0.669-3.582,5.087-3.833,6.338c-0.248,1.251-0.833,3.002-1.33,3.834
			c-0.504,0.831-2.171,2.75-3.173,3.665c-0.999,0.919-2.662,2.752-3.498,3.416c-0.832,0.669-3.168,3.253-4.834,3.42
			c-1.668,0.169-3.086,0.832-3.501,1.834c-0.419,1-1.419,2.584-2.584,3.252c-1.166,0.669-2.085,0.833-3.251,0.501
			c-1.172-0.334-1.92-1.334-2.92-1.499c-0.996-0.169-3.002-0.835-4.834-0.754c-1.834,0.085-3.918,0.253-5.25,0.418
			c-1.334,0.167-2.918-0.997-3.836-1.332s-4.082-1.337-5.252-1.753c-1.166-0.415-3.418-1.416-4-1.749
			c-0.584-0.336-3.166-1.253-4.252-2.086c-1.084-0.831-3.332-1.415-3.418-2.581c-0.082-1.169-1.916-3.335-1.75-4.669
			c0.168-1.335-0.416-3.334-0.582-4.499c-0.166-1.172-1.17-4.255-1.584-5.172c-0.416-0.917-1.582-3.161-1.582-4.749
			c0-1.586-0.254-2.92,0-3.585C170.104,43.241,170.355,42.325,170.355,42.325"/>
		<path fill="#364699" d="M176.355,31.319c0.916-1.334,0.916-2.251,1.582-2.999c0.666-0.754,0.918-2.334,2.416-3.168
			c1.502-0.834,4.17-3.25,5.752-3.836c1.586-0.583,2.088-0.416,3.752-1.5c1.67-1.083,3.42-1.75,5.168-2.337
			c1.752-0.581,3.336-1.162,4.92-1.162c1.582,0,5.671-0.5,7.505,0.581c1.831,1.083,0.411,0.087,2.581,1.167
			c2.166,1.082,3.752,2,4.919,2.416c1.169,0.418,4,1.501,5.252,2.919c1.251,1.417,4.085,4.834,4.669,6.253
			c0.583,1.417,1.998,1.665,2.333,2.999c0.332,1.332,0.831,3.415,1.081,5.251c0.252,1.834-0.749,3.25,0,5.167
			c0.751,1.92,2.17,3.417,2.084,5.255c-0.085,1.831-0.24,1.495,0.007,2.833c0.247,1.335-1.423,2.833-1.919,4.083
			c-0.506,1.251-2.17,3.837-2.255,4.918c-0.084,1.083-1.331,4.083-1.168,4.831c0.168,0.756-1.083,2.755-2.001,3.339
			c-0.916,0.579-2.248,0.831-3.916,0.917c-1.664,0.083-2.838-0.338-3.752,0.913c-0.914,1.254-0.497,2.254-2.584,2.421
			c-2.086,0.165-3.084,1.418-4.752,1.418c-1.666,0-2.582,0.498-4.332,0c-1.752-0.502-3.836-0.667-4.752-0.252
			c-0.918,0.416-0.752,0.916-2.504,1.002c-1.748,0.08-6.914-1.088-7.998-2.168c-1.086-1.085-3.422-2.082-3.588-2.75
			c-0.164-0.67-0.584-1.836-2.164-2.421c-1.582-0.582-2.338-1.252-3.756-1.831c-1.412-0.588-3.496-0.92-3.998-3.338
			c-0.498-2.414-1.252-3.249-0.832-4.333c0.414-1.087,0.004-1.668-0.123-2.835c-0.129-1.166-1.127-1.416-1.461-2.754
			c-0.336-1.327-2.084-1.995-1.834-3.664c0.246-1.664-0.084-2.738,0.67-3.366c0.746-0.635,0.998-0.465,1.244-1.799
			c0.254-1.334,0.836-2.252,0.586-3.669c-0.25-1.418-1.082-2.343-0.25-3.214c0.834-0.87,1.168-1.286,1.582-2.455
			c0.418-1.165,1.504-2.331,1.504-2.331L176.355,31.319"/>
		<path fill="#505EA7" d="M175.938,49.66c0-1.251-0.166-2.668-0.498-3.253c-0.336-0.585-0.584-1.501,0-1.998
			c0.584-0.503,0.25-1.419,0.498-2.002c0.25-0.587-0.666-0.587,0-1.835c0.668-1.25,0.25-2.667,1.334-3.335
			c1.084-0.666,0.92-1.331,1.332-2.665c0.42-1.337,2.588-2.834,2.836-3.753c0.25-0.917,0-2.251,1.584-2.917
			c1.584-0.667,2.084-1.5,3.584-1.583c1.502-0.084,1.502-0.333,3.084-1.416c1.584-1.085,2.834-2.336,4.17-3.085
			c1.332-0.751,2.082-1.167,3.332-2.002c1.25-0.833,2.082-1.25,4.334-1.25s4.252-0.085,5.752,0c1.5,0.084,6.17,1.5,7.502,2.5
			c1.339,0.999,1.919,1.167,2.921,2.085c1,0.914,3.167,3.166,3.003,4.25c-0.17,1.083-0.756,0.917,0.414,2.499
			c1.169,1.582,2.416,4.333,2.668,5.668c0.246,1.331,0.916,3.584,1.668,4.836c0.748,1.25,0.999,4.999,0.914,6.417
			c-0.081,1.42,0.168,5.089-0.833,6c-1,0.922-4.082,3.922-4.585,5.591c-0.5,1.664-1.5,4.917-2.249,5.5
			c-0.753,0.583-3.668,3.081-5.007,3.167c-1.328,0.082-2.244,0.166-3.578,0.667c-1.338,0.501-3.334,1.501-3.922,2.085
			c-0.582,0.582-0.916,1.829-2.498,1.583c-1.586-0.251-3.756,0.082-4.086-0.335c-0.334-0.415-1.5-0.746-2.168-0.501
			c-0.666,0.252-1.002,0.901-2.002,0.868c-0.998-0.032-1.162-0.367-2.08-1.286c-0.92-0.913-3.42-1.162-3.42-1.162
			s-1.666-0.256-3.168-0.586c-1.5-0.332-3.416-1.081-3.834-2.083c-0.418-1-1.832-2.5-2.418-2.666
			c-0.584-0.172-1.666-1.669-1.666-2.756c0-1.08-0.252-2.749-1.502-2.913c-1.246-0.166-2.196-2.334-2.268-3.249
			c-0.066-0.921-0.516-2.337,0-3.003C175.604,51.078,175.938,49.66,175.938,49.66"/>
		<path fill="#969FCD" d="M202.957,62.911c1.488,0,1.156-0.083,2.49,0c1.334,0.084,2.166,0,3.166-0.415
			c1-0.42,0.836-1.083,1.834-1.588c1.003-0.495,1.418-0.913,2.42-1.246c0.998-0.333,1.164-0.085,2.166-1.002
			c0.998-0.914,1.666-1.5,2.169-1.751c0.499-0.249,1.416-1.5,1.499-2.585c0.083-1.082,0.832-2.167,0.999-3.164
			c0.168-1.002-0.417-2.421,0-3.001c0.417-0.583,0.247-1.706,0.665-2.186c0.42-0.484-0.248-1.482-0.332-1.983
			c-0.086-0.5-0.415-1.917-0.415-2.587c0-0.663-0.25-1.413-0.085-1.999c0.167-0.582,0.085-1.5-0.083-2.333
			c-0.167-0.835-0.5-2.251-1.334-2.586c-0.835-0.333-1.417-1.251-1.417-2.333s-0.168-2.25-0.668-3.252
			c-0.5-0.999-0.998-2.333-2.248-2.666c-1.252-0.333-1.75-0.917-2.67-1.331c-0.916-0.416-3.834-0.836-4.582-0.836
			c-0.752,0-3.982-0.249-4.576,0c-0.594,0.25-1.596,0.25-2.844,0.502c-1.248,0.249-2.334,0.083-3.252,0.749
			c-0.918,0.669-2.746,1.335-3.916,1.417c-1.168,0.083-3.084,0.918-3.916,1.832c-0.838,0.918-2.334,2.419-2.418,3.337
			c-0.088,0.915-1.086,2.5-1.002,3.498c0.084,1.003-1.25,2.67-1.422,4.087c-0.162,1.416-0.998,2.333-0.828,3.959
			c0.164,1.625,0.537,2.544-0.024,3.375c-0.56,0.837-0.938,2.837,0,3.92c0.94,1.085,1.024,1.752,2.358,2.415
			c1.332,0.667,2.168,1.335,2.498,2.169c0.336,0.83,0.416,1.167,1.584,1.333c1.168,0.163,2.584,1.004,2.834,1.584
			c0.252,0.582,0.668,0.836,1.506,1.249c0.828,0.419,1.164,0.92,1.996,1.415c0.834,0.503,1.25,1.335,1.916,1.423
			c0.672,0.082,0,0.889,1.168,0.608c1.17-0.279,2.336-0.194,2.336-0.194L201.955,63L202.957,62.911"/>
		<path fill="#E1E6F3" d="M197.025,55.993c0.584,0.248,4.188,0.667,4.93,0.667c0.738,0,2.158,0.5,3.074,0
			c0.914-0.503,2.25-0.166,3-0.667c0.75-0.5,2.168-1.582,3.171-2.416c0.997-0.834,2.247-2.253,2.495-3.419
			c0.254-1.164,1.002-3.655,1.002-4.868c0-1.218-0.334-3.47-0.498-4.3c-0.168-0.836-0.752-2.087-0.999-2.835
			c-0.251-0.75-0.587-2.167-1.335-2.834c-0.752-0.669-1.25-1.751-1.834-2c-0.582-0.25-2.002-0.835-2.752-1
			c-0.748-0.168-3.146-1.25-4.322-1.25c-1.178,0-3.68-0.336-4.514,0c-0.834,0.331-2.668,0.751-3.666,1.333
			c-1,0.583-1.5,1.166-1.918,1.917c-0.418,0.751-1.834,2.334-1.918,3.083c-0.084,0.75-0.666,2.92-0.92,3.834
			c-0.246,0.918-0.246,2.832-0.33,3.749c-0.082,0.921-0.832,3.172,0,4.34c0.836,1.167,1.836,2.501,2.336,3.251
			c0.498,0.749,1.664,1.415,2.084,1.746c0.414,0.337,1.166,0.75,1.498,0.919C195.943,55.409,197.025,55.993,197.025,55.993"/>
		<path fill="#FFFFFF" d="M197.443,50.743c0.42,0.417,1.25,0.498,1.834,0.749s1.527,0.502,2.724,0.502
			c1.192,0,1.944-0.587,2.61-0.626c0.668-0.044,0.418-0.459,1.584-0.625s1.418-1,1.834-1.5c0.418-0.501,0.666-1.498,1.086-2.42
			c0.414-0.915-0.254-2.426,0-2.922c0.25-0.495-0.502-2.162-0.75-2.996c-0.252-0.833-1.086-2.415-1.834-2.75
			c-0.752-0.332-2.11-1.335-3.18-1.335c-1.074,0-3.156-0.08-3.824,0c-0.666,0.082-2.002,0.252-3.002,0.668
			c-1,0.417-1.584,1.169-2,2.168c-0.414,1-0.664,2.25-0.584,3.416c0.086,1.167-0.279,1.799-0.018,2.901
			c0.268,1.102,0.018,1.435,0.77,2.519c0.748,1.083,1.582,1.747,1.832,1.747C196.777,50.239,197.443,50.743,197.443,50.743"/>
	</g>
</g>
<g>
	<g>
		<path fill="#221F52" d="M26.481,38.912h-6.334c0-2.88-2.399-5.039-6.431-5.039c-3.357,0-6.477,1.296-6.477,3.839
			c0,2.304,2.251,3.117,7.343,4.175c7.916,1.585,12.908,3.55,12.908,10.367c0,6.432-5.374,10.462-13.774,10.462
			c-6.528,0-13.628-3.598-13.628-11.612h6.334c0,3.938,3.937,5.809,7.294,5.809c3.647,0,7.44-1.298,7.44-4.463
			c0-2.113-1.73-3.409-7.871-4.607c-6.142-1.201-12.38-3.027-12.38-10.177c0-5.71,5.037-9.693,12.811-9.693
			C22.497,27.971,26.481,33.634,26.481,38.912"/>
		<rect x="32.576" y="28.833" fill="#221F52" width="6.333" height="33.31"/>
		<path fill="#221F52" d="M70.777,62.141H64.44v-8.731c0-2.834-1.342-4.132-4.316-4.132h-8.64v12.863H45.15V28.833h15.212
			c6.958,0,11.423,3.696,11.423,9.937c0,3.789-1.775,6.237-4.656,7.58c2.35,1.297,3.647,3.604,3.647,7.105L70.777,62.141
			 M60.506,43.566c0.817,0,4.943-0.335,4.943-4.462c0-1.103,0-4.368-5.086-4.368h-8.878v8.83H60.506z"/>
		<rect x="77.399" y="28.833" fill="#221F52" width="6.334" height="33.31"/>
		<path fill="#221F52" d="M115.359,48.943c0,8.494-4.462,13.771-12.863,13.771c-8.396,0-12.814-5.277-12.814-13.771v-20.11h6.338
			v20.304c0,4.942,2.159,7.438,6.476,7.438c4.319,0,6.48-2.496,6.48-7.438V28.833h6.383V48.943"/>
		<path fill="#221F52" d="M146.266,38.912h-6.334c0-2.88-2.4-5.039-6.436-5.039c-3.355,0-6.479,1.296-6.479,3.839
			c0,2.304,2.258,3.117,7.346,4.175c7.918,1.585,12.908,3.55,12.908,10.367c0,6.432-5.375,10.462-13.775,10.462
			c-6.523,0-13.627-3.598-13.627-11.612h6.333c0,3.938,3.938,5.809,7.294,5.809c3.646,0,7.439-1.298,7.439-4.463
			c0-2.113-1.729-3.409-7.869-4.607c-6.146-1.201-12.382-3.027-12.382-10.177c0-5.71,5.041-9.693,12.812-9.693
			C142.281,27.971,146.266,33.634,146.266,38.912"/>
		<path fill="#231F20" d="M57.494,68.768h0.859l3.807,9.448h0.028l3.767-9.448h0.861v10.146h-0.601v-9.376h-0.028l-3.711,9.376
			h-0.601l-3.754-9.376h-0.028v9.376h-0.599V68.768z"/>
		<path fill="#231F20" d="M68.534,68.768h0.598v10.146h-0.598V68.768z"/>
		<path fill="#231F20" d="M70.851,68.768h0.751l6.156,9.308h0.028v-9.308h0.599v10.146h-0.708l-6.198-9.376h-0.027v9.376h-0.601
			V68.768z"/>
		<path fill="#231F20" d="M86.724,78.372v0.54h-6.623V68.768h6.554v0.541h-5.952v4.062h5.595v0.541h-5.595v4.459L86.724,78.372
			L86.724,78.372z"/>
		<path fill="#231F20" d="M99.888,68.768l3.848,10.146h-0.641l-1.228-3.254h-4.668l-1.243,3.254h-0.642l3.918-10.146H99.888z
			 M101.676,75.119l-2.089-5.739H99.56l-2.171,5.739H101.676z"/>
		<path fill="#231F20" d="M104.43,68.768h0.601v9.604h5.527v0.54h-6.127L104.43,68.768L104.43,68.768z"/>
		<path fill="#231F20" d="M117.612,71.667c-0.068-1.731-1.324-2.601-3.125-2.601c-1.106,0-2.677,0.48-2.677,2.16
			c0,1.633,1.666,1.902,3.318,2.26c1.664,0.354,3.329,0.796,3.329,2.812c0,2.103-1.938,2.854-3.425,2.854
			c-2.28,0-4.136-0.979-4.108-3.594h0.601c-0.125,2.215,1.581,3.053,3.507,3.053c1.174,0,2.824-0.553,2.824-2.313
			c0-1.719-1.663-2.017-3.329-2.372c-1.652-0.357-3.318-0.769-3.318-2.699c0-1.946,1.735-2.699,3.278-2.699
			c2.032,0,3.629,0.908,3.726,3.141L117.612,71.667L117.612,71.667z"/>
		<path fill="#231F20" d="M123.642,68.768h4.147c1.105,0,2.84,0.414,2.84,2.842c0,1.776-1.12,2.785-3.059,2.785h-3.331v4.519h-0.599
			L123.642,68.768L123.642,68.768z M124.241,73.855h3.427c1.76,0,2.359-1.209,2.359-2.261c0-0.754-0.327-2.286-2.279-2.286h-3.507
			V73.855z"/>
		<path fill="#231F20" d="M131.706,68.768h0.601v9.604h5.525v0.54h-6.126V68.768L131.706,68.768z"/>
		<path fill="#231F20" d="M146.115,71.794c-0.258-1.705-1.691-2.729-3.315-2.729c-2.554,0-4.038,2.176-4.038,4.774
			c0,2.601,1.484,4.772,4.038,4.772c1.896,0,3.372-1.762,3.479-3.651h0.601c-0.216,2.417-1.938,4.192-4.08,4.192
			c-2.921,0-4.642-2.346-4.642-5.313c0-2.97,1.721-5.313,4.642-5.313c3.453,0,3.904,3.125,3.917,3.27L146.115,71.794L146.115,71.794
			z"/>
		<path fill="#231F20" d="M88.344,74.294h3.465c1.708,0,2.173,0.796,2.295,1.776c0.042,0.379,0.035,1.531,0.032,2.841h0.61
			c-0.007-1.243-0.005-2.335-0.042-2.728c-0.097-1.053-0.451-2.004-1.897-2.175v-0.026c1.297-0.229,2.089-1.237,2.089-2.602
			c0-1.964-1.38-2.613-3.087-2.613h-4.067v10.144h0.602V74.294z M88.344,69.309h3.465c1.312,0,2.487,0.584,2.487,2.117
			c0,1.633-1.066,2.328-2.487,2.328h-3.465V69.309z"/>
	</g>
</g>
</svg>
